Coordinates
nRows=128
nColumns=2
inDegrees=yes
endheader
time	ankle_angle_r	
2.1875	 -5.294741	
2.25	 -5.240772	
2.3125	 -5.244821	
2.375	 -5.258330	
2.4375	 -5.251300	
2.5	 -5.256864	
2.5625	 -5.270568	
2.625	 -5.279918	
2.6875	 -5.286672	
2.75	 -5.269132	
2.8125	 -5.254041	
2.875	 -5.268897	
2.9375	 -5.274884	
3	 -5.277432	
3.0625	 -5.290554	
3.125	 -5.287083	
3.1875	 -5.276470	
3.25	 -5.256391	
3.3125	 -5.238062	
3.375	 -5.243602	
3.4375	 -5.201419	
3.5	 -5.153709	
3.5625	 -5.193172	
3.625	 -5.209582	
3.6875	 -5.186568	
3.75	 -5.209275	
3.8125	 -5.207374	
3.875	 -5.171843	
3.9375	 -5.186134	
4	 -5.202819	
4.0625	 -5.165969	
4.125	 -5.153151	
4.1875	 -5.199235	
4.25	 -5.214048	
4.3125	 -5.187171	
4.375	 -5.195832	
4.4375	 -5.204403	
4.5	 -5.174389	
4.5625	 -5.162180	
4.625	 -5.152024	
4.6875	 -5.144493	
4.75	 -5.186223	
4.8125	 -5.197170	
4.875	 -5.167747	
4.9375	 -5.170182	
5	 -5.139148	
5.0625	 -5.089346	
5.125	 -5.109453	
5.1875	 -5.124060	
5.25	 -5.095869	
5.3125	 -5.087795	
5.375	 -5.082771	
5.4375	 -5.064900	
5.5	 -5.062719	
5.5625	 -5.074120	
5.625	 -5.077854	
5.6875	 -5.059521	
5.75	 -5.071443	
5.8125	 -5.164584	
5.875	 -5.239728	
5.9375	 -5.220837	
6	 -5.199698	
6.0625	 -5.225333	
6.125	 -5.229633	
6.1875	 -5.198144	
6.25	 -5.209724	
6.3125	 -5.260791	
6.375	 -5.264834	
6.4375	 -5.241735	
6.5	 -5.230572	
6.5625	 -5.220940	
6.625	 -5.235419	
6.6875	 -5.245960	
6.75	 -5.224469	
6.8125	 -5.210935	
6.875	 -5.183297	
6.9375	 -5.118278	
7	 -5.080369	
7.0625	 -5.084255	
7.125	 -5.081079	
7.1875	 -5.091334	
7.25	 -5.135682	
7.3125	 -5.154647	
7.375	 -5.136471	
7.4375	 -5.132164	
7.5	 -5.142886	
7.5625	 -5.132865	
7.625	 -5.119063	
7.6875	 -5.134011	
7.75	 -5.141900	
7.8125	 -5.135277	
7.875	 -5.134344	
7.9375	 -5.111931	
8	 -5.115840	
8.0625	 -5.168721	
8.125	 -5.188127	
8.1875	 -5.204499	
8.25	 -5.252125	
8.3125	 -5.274462	
8.375	 -5.284721	
8.4375	 -5.285403	
8.5	 -5.262277	
8.5625	 -5.252639	
8.625	 -5.252681	
8.6875	 -5.258782	
8.75	 -5.272623	
8.8125	 -5.278555	
8.875	 -5.287837	
8.9375	 -5.254067	
9	 -5.184961	
9.0625	 -5.184106	
9.125	 -5.205574	
9.1875	 -5.179331	
9.25	 -5.171089	
9.3125	 -5.188364	
9.375	 -5.175773	
9.4375	 -5.137643	
9.5	 -5.093550	
9.5625	 -5.092613	
9.625	 -5.172372	
9.6875	 -5.253866	
9.75	 -5.277988	
9.8125	 -5.276834	
9.875	 -5.281583	
9.9375	 -5.292587	
10	 -5.277583	
10.0625	 -5.251003	
10.125	 -5.264275	
